<?xml version="1.0" encoding="utf-8"?>
<!-- Generator: Adobe Illustrator 23.1.0, SVG Export Plug-In . SVG Version: 6.00 Build 0)  -->
<svg version="1.1" xmlns="http://www.w3.org/2000/svg" xmlns:xlink="http://www.w3.org/1999/xlink" x="0px" y="0px"
	 viewBox="0 0 32 32" style="enable-background:new 0 0 32 32;" xml:space="preserve">
<style type="text/css">
	.st0{fill:none;}
	.st1{stroke:#000000;stroke-width:0.5;stroke-miterlimit:10;}
	.st2{font-family:'MyriadPro-Regular';}
	.st3{font-size:8px;}
	.st4{fill:none;stroke:#000000;stroke-width:0.75;stroke-miterlimit:10;}
	.st5{fill:#FFFFFF;}
</style>
<g id="Layer_1">
	<rect x="4.7" y="22" class="st0" width="29.1" height="8.4"/>
	<text transform="matrix(1 0 0 1 4.7434 27.6402)" class="st1 st2 st3">S A S S</text>
</g>
<g id="Layer_4">
	<g id="Layer_2">
	</g>
	<path class="st4" d="M18.6,15.5c-1.4-0.8-2.8-1.7-4.2-2.5c0.5-2.2,0.9-4.4,1.4-6.6c1.5,1.9,3,3.8,4.5,5.7
		C19.7,13.2,19.1,14.3,18.6,15.5z"/>
	<path class="st4" d="M14.1,13c-2,1.5-3.9,3-5.9,4.4c0.5-1.6,1-3.2,1.5-4.8c1.8-2,3.6-4,5.3-6C14.7,8.7,14.4,10.9,14.1,13z"/>
	<path class="st4" d="M7.7,17.4c-4.5,2.1-6.9,2.9-7.1,2.6c-0.2-0.3,1.2-1.5,4.2-3.6c0.7-1.1,1.5-2.1,2.2-3.2
		C7.2,14.6,7.5,16,7.7,17.4z"/>
	<path class="st4" d="M7.2,12.6c0.8,0.1,1.6,0.1,2.3,0.2"/>
	<path class="st4" d="M26.6,20.4c-2.5-1.5-5-3.1-7.5-4.6c1.3-1.3,2.6-2.6,3.9-3.9c0.7,1.1,1.4,2.3,2.1,3.4
		C25.5,17,26.1,18.7,26.6,20.4z"/>
	<path class="st4" d="M31.2,20.7c0,0.1-0.3,0.1-0.8,0.1c-1.4,0-2,0-2,0c-0.3,0-0.9-0.1-1.6-0.1c-0.5-1.7-1.1-3.5-1.6-5.2
		c1.1,0.9,2.3,1.9,3.4,2.9c1.5,1.4,1.2,1.2,1.7,1.5C30.8,20.3,31.3,20.5,31.2,20.7z"/>
	<path class="st4" d="M13.9,20.4c1.6-1.6,3.1-3.3,4.7-4.9c0.5,1.7,1,3.4,1.5,5.2C18,20.6,16,20.5,13.9,20.4z"/>
	<path d="M26.7,20.7c-2.1,0-4.2,0-6.3,0c-0.4-1.6-0.9-3.2-1.3-4.7C21.6,17.6,24.1,19.1,26.7,20.7z"/>
	<path class="st4" d="M7.2,20.5c2.3,0,4.7,0.1,7,0.1c1.3-1.7,2.7-3.4,4-5.1c-1.4-0.7-2.7-1.4-4.1-2.1C11.8,15.8,9.5,18.1,7.2,20.5z"
		/>
	<path class="st4" d="M7.5,20.4C5.7,20.3,3.8,20.2,2,20c0.9-0.4,1.9-0.8,3-1.2c1-0.4,2-0.6,2.8-0.9C7.7,18.8,7.6,19.6,7.5,20.4z"/>
	<path class="st4" d="M20,11.9c1-0.1,2-0.2,3.1-0.2"/>
	<path class="st4" d="M32.6,13.3"/>
	<path class="st4" d="M0.6,20c1.4,0.2,3.4,0.4,5.9,0.5c0.4,0,0.9,0.1,1.5,0.1c1.7,0.1,2.9,0,6.6,0.1c2.4,0.1,2.3,0.1,5.6,0.2
		c2.7,0.1,4,0.1,5.8,0.1c2.2,0,4.1-0.2,5.3-0.3"/>
	<g>
		<g>
			<path d="M26.4,18c0.3-0.3,0.6-0.5,0.9-0.8c0,0,0,0-0.1,0c0,0-0.1,0-0.2,0.1c-0.3,0.3-0.6,0.5-0.9,0.8c0,0,0,0,0.1,0
				C26.3,18.1,26.4,18.1,26.4,18L26.4,18z"/>
		</g>
	</g>
	<g>
		<g>
			<path d="M27.1,17.3c-0.4,0.4-0.7,0.7-1.1,1.1c0.1,0,0.1,0,0.2,0c0.2-0.4,0.6-0.8,1-1c0,0,0.1,0,0-0.1
				C27.3,17.3,27.2,17.3,27.1,17.3c-0.4,0.2-0.8,0.6-1.1,1.1c0,0,0.1,0,0.1,0c0,0,0.1,0,0.1-0.1c0.4-0.4,0.7-0.7,1.1-1.1
				c0,0,0,0-0.1,0C27.3,17.3,27.2,17.3,27.1,17.3L27.1,17.3z"/>
		</g>
	</g>
	<g>
		<g>
			<path d="M26.6,17.2c-0.2,0.2-0.4,0.4-0.6,0.6c0.1,0,0.1,0,0.2,0c0.2-0.3,0.5-0.6,0.7-0.9c0.1-0.1-0.1-0.1-0.1,0
				c-0.4,0.1-0.7,0.3-0.9,0.7c0,0,0,0.1,0.1,0.1c0,0,0.1,0,0.2-0.1c0.1-0.1,0.2-0.2,0.3-0.3c0.1,0,0.1-0.1,0.2-0.1
				c0.1,0,0.1-0.1,0.2-0.1c0,0-0.1,0-0.1,0c-0.2,0.3-0.5,0.6-0.7,0.9c0,0,0,0.1,0,0.1c0,0,0.1,0,0.2,0c0.2-0.2,0.4-0.4,0.6-0.6
				c0,0,0-0.1,0-0.1C26.7,17.1,26.7,17.2,26.6,17.2L26.6,17.2z"/>
		</g>
	</g>
	<g>
		<g>
			<path d="M26.5,17c-0.2,0.1-0.5,0.2-0.7,0.3c0,0-0.1,0-0.1,0.1c0,0,0.1,0,0.2,0C26.1,17.3,26.3,17.2,26.5,17c0.1,0.1,0.2,0,0.2,0
				C26.6,17,26.5,17,26.5,17L26.5,17z"/>
		</g>
	</g>
	<g>
		<g>
			<path d="M26.7,18.6c0.4-0.3,0.7-0.6,1.1-0.9c-0.1,0-0.1,0-0.2,0c-0.5,0.5-0.9,1-1.4,1.5c0,0,0,0,0,0c0.1,0,0.1,0,0.2,0
				c0.6-0.3,1.2-0.7,1.8-1c-0.1,0-0.1,0-0.2,0c-0.5,0.3-1.1,0.7-1.6,1c0,0,0,0,0,0c0,0,0.1,0,0.2,0c0.5-0.2,0.9-0.5,1.4-0.7
				c0.1,0,0-0.1,0-0.1c-0.5,0.1-0.9,0.3-1.3,0.6c0,0,0,0,0.1,0c0.1,0,0.1,0,0.2-0.1c0.4-0.3,0.9-0.7,1.3-1c-0.1,0-0.1,0-0.2,0
				c-0.5,0.5-1,0.9-1.6,1.2c0,0,0,0,0,0c0.1,0,0.1,0,0.2,0c0.6-0.3,1.1-0.8,1.6-1.3c0,0,0,0-0.1,0c-0.1,0-0.1,0-0.2,0.1
				c-0.4,0.3-0.9,0.7-1.3,1c0.1,0,0.1,0,0.2,0c0.3-0.3,0.6-0.5,1-0.5c0,0,0,0,0-0.1c-0.5,0.2-0.9,0.5-1.4,0.7c0.1,0,0.1,0,0.2,0
				c0.5-0.3,1.1-0.7,1.6-1c0,0,0,0,0,0c-0.1,0-0.1,0-0.2,0c-0.6,0.3-1.2,0.7-1.8,1c0.1,0,0.1,0,0.2,0c0.5-0.5,0.9-1,1.4-1.5
				c0,0,0,0-0.1,0c-0.1,0-0.1,0-0.2,0.1c-0.4,0.3-0.7,0.6-1.1,0.9c0,0,0,0,0.1,0C26.6,18.6,26.7,18.6,26.7,18.6L26.7,18.6z"/>
		</g>
	</g>
	<g>
		<g>
			<path d="M28.1,18.3c-0.3,0.1-0.6,0.2-0.9,0.3c0,0-0.1,0-0.1,0.1c0,0,0,0.1,0.1,0.1c0.4,0,0.8-0.2,1-0.5
				C28.3,18.2,28.2,18.2,28.1,18.3c-0.6,0.2-1.2,0.4-1.8,0.7c-0.1,0.1,0,0.2,0.1,0.1c0.2-0.1,0.4-0.1,0.7-0.2c0.1,0,0.2-0.1,0-0.1
				c-0.1,0-0.3-0.1-0.4-0.1c0,0,0,0.1,0,0.1c0.4-0.3,0.9-0.7,1.3-1c0,0,0.1-0.1,0-0.1c0,0-0.1,0-0.2,0c-0.4,0.3-0.9,0.7-1.3,1
				c0,0-0.1,0.1,0,0.1c0.1,0,0.3,0.1,0.4,0.1c0,0,0-0.1,0-0.1c-0.2,0.1-0.4,0.1-0.7,0.2c0,0,0,0.1,0.1,0.1
				C27,18.8,27.6,18.6,28.1,18.3C28.1,18.3,28.1,18.3,28.1,18.3c-0.3,0.2-0.5,0.3-0.8,0.3c0,0,0,0.1,0,0.1c0.3-0.1,0.6-0.2,0.9-0.3
				c0,0,0.1,0,0.1-0.1C28.2,18.3,28.2,18.3,28.1,18.3L28.1,18.3z"/>
		</g>
	</g>
	<g>
		<g>
			<path d="M27,19.8c0.4-0.3,0.8-0.6,1.2-0.9c-0.1,0-0.1,0-0.2,0c-0.5,0.5-0.9,0.9-1.4,1.4c0.1,0,0.1,0,0.2,0
				c0.2-0.5,0.6-0.9,1.1-1.2c0,0,0.1-0.1,0-0.1c0,0-0.1,0-0.2,0c-0.5,0.3-0.9,0.7-1.2,1.2c-0.1,0.1,0.2,0.1,0.2,0
				c0.5-0.5,0.9-0.9,1.4-1.4c0,0,0-0.1,0-0.1c-0.1,0-0.1,0-0.2,0c-0.4,0.3-0.8,0.6-1.2,0.9c0,0,0,0.1,0,0.1
				C26.9,19.9,26.9,19.9,27,19.8L27,19.8z"/>
		</g>
	</g>
	<g>
		<g>
			<path d="M28.2,18.9c0.2-0.1,0.4-0.3,0.6-0.4c-0.1,0-0.1,0-0.2,0c-0.6,0.5-1.2,1-1.8,1.5c0,0,0,0.1,0,0.1c0,0,0.1,0,0.2,0
				c0.6-0.5,1.2-1,1.8-1.5c0,0,0-0.1,0-0.1c-0.1,0-0.1,0-0.2,0c-0.2,0.1-0.4,0.3-0.6,0.4c0,0,0,0.1,0,0.1
				C28.1,18.9,28.2,18.9,28.2,18.9L28.2,18.9z"/>
		</g>
	</g>
	<g>
		<g>
			<path d="M27.6,20.5c0.2-0.2,0.5-0.4,0.7-0.6c0,0,0-0.1,0-0.1c-0.1,0-0.1,0-0.2,0c-0.2,0.2-0.5,0.4-0.7,0.6c0,0,0,0.1,0,0.1
				C27.5,20.6,27.5,20.5,27.6,20.5L27.6,20.5z"/>
		</g>
	</g>
	<g>
		<g>
			<path d="M28.1,19.9c-0.1,0.2-0.1,0.5-0.2,0.7c0,0.1,0.1,0.1,0.1,0.1c0,0,0.1,0,0.1-0.1c0.1-0.2,0.1-0.5,0.2-0.7
				c0-0.1-0.1-0.1-0.1-0.1C28.1,19.8,28.1,19.8,28.1,19.9L28.1,19.9z"/>
		</g>
	</g>
	<g>
		<g>
			<path d="M28,20.1c-0.2,0.3-0.4,0.5-0.6,0.7c0.1,0,0.1,0,0.2,0c0,0,0-0.1,0-0.1c0,0,0.1-0.1,0.1-0.1c0.1-0.1,0.2-0.2,0.3-0.3
				C28,20.1,28,20.1,28,20.1c-0.1,0.1-0.2,0.1-0.2,0.1c-0.1,0.1-0.1,0.1-0.2,0.2c0,0,0,0,0.1,0c0.1,0,0.1,0,0.2-0.1
				c0.1-0.1,0.1-0.1,0.2-0.2c-0.1,0-0.1,0-0.2,0c-0.1,0.1-0.2,0.2-0.3,0.3c-0.1,0.1-0.2,0.2-0.1,0.3c0,0,0.1,0,0.1,0
				c0,0,0.1,0,0.1,0c0.3-0.2,0.5-0.5,0.7-0.7c0,0-0.1,0-0.1,0C28.1,20,28,20,28,20.1L28,20.1z"/>
		</g>
	</g>
	<g>
		<g>
			<path d="M10.3,15.9c-0.3,0.6-0.6,1.2-1,1.8c0,0,0,0.1,0.1,0.1c0.1,0,0.1,0,0.2-0.1c0.6-0.8,1.3-1.5,1.9-2.3c0,0,0-0.1-0.1-0.1
				c-0.1,0-0.1,0-0.2,0.1c-0.6,0.8-1.3,1.5-1.9,2.3c0.1,0,0.1,0,0.2,0c0.3-0.6,0.6-1.2,1-1.8C10.6,15.8,10.4,15.8,10.3,15.9
				L10.3,15.9z"/>
		</g>
	</g>
	<g>
		<g>
			<path d="M9.4,16.9c-0.6,0.8-1.2,1.6-1.9,2.5c0.1,0,0.1,0,0.2,0c0.4-0.7,1.1-1.3,1.8-1.7c-0.1,0-0.1-0.1-0.2-0.1
				c-0.2,0.3-0.4,0.7-0.5,1c-0.1,0.1,0.2,0.1,0.2,0c0.2-0.3,0.4-0.7,0.5-1c0.1-0.1-0.1-0.1-0.2-0.1c-0.8,0.4-1.5,1-1.9,1.8
				c-0.1,0.1,0.2,0.1,0.2,0c0.6-0.8,1.2-1.6,1.9-2.5C9.6,16.8,9.4,16.8,9.4,16.9L9.4,16.9z"/>
		</g>
	</g>
	<g>
		<g>
			<path class="st5" d="M22.3,19.7c-0.3-0.2-0.7-0.5-1-0.7c-0.2-0.1-0.3-0.2-0.5-0.3c-0.1-0.1-0.1-0.1-0.2-0.2
				c-0.1-0.1-0.1-0.1-0.2-0.2c0,0,0,0,0,0c0.3,0.3,0.7,0.5,1,0.8c0.4,0.3,0.7,0.5,1.1,0.8c0,0,0,0,0,0
				C22.5,19.7,22.3,19.6,22.3,19.7C22.2,19.8,22.2,19.8,22.3,19.7c-0.1,0-0.2-0.1-0.2-0.1c0,0,0,0,0,0
				C22.1,19.6,22.1,19.7,22.3,19.7C22.2,19.8,22.2,19.8,22.3,19.7c0-0.1,0.1,0,0.2,0.1c0,0,0,0,0.1,0.1c0,0,0,0,0,0
				c-0.4-0.2-0.7-0.5-1.1-0.8c-0.3-0.3-0.7-0.5-1-0.8c0,0,0,0,0,0c0,0.1,0.1,0.1,0.1,0.2c0,0.1,0.1,0.1,0.2,0.2
				c0.2,0.1,0.3,0.2,0.5,0.4C21.6,19.2,21.9,19.5,22.3,19.7C22.3,19.7,22.3,19.7,22.3,19.7L22.3,19.7z"/>
		</g>
	</g>
	<g>
		<g>
			<path class="st5" d="M20.8,18.5c0,0-0.1-0.1-0.1-0.1c0,0,0,0,0,0C20.7,18.5,20.7,18.5,20.8,18.5C20.7,18.6,20.8,18.5,20.8,18.5
				L20.8,18.5z"/>
		</g>
	</g>
	<g>
		<g>
			<path class="st5" d="M20.5,18.3c0.1,0.1,0.2,0.2,0.3,0.3c0,0,0,0,0,0C20.7,18.5,20.6,18.4,20.5,18.3
				C20.5,18.3,20.5,18.3,20.5,18.3L20.5,18.3z"/>
		</g>
	</g>
	<g>
		<g>
			<path class="st5" d="M20.7,18.5c0.1,0.1,0.3,0.3,0.4,0.4c0,0,0,0,0,0c-0.2-0.2-0.4-0.4-0.6-0.5c0,0,0,0,0,0
				C20.5,18.4,20.6,18.4,20.7,18.5C20.6,18.5,20.6,18.5,20.7,18.5c0-0.1-0.1-0.1-0.1-0.1c0,0,0,0,0,0c0.1,0.1,0.2,0.2,0.3,0.3
				c0,0,0,0,0,0C20.8,18.6,20.7,18.5,20.7,18.5C20.7,18.4,20.7,18.5,20.7,18.5C20.6,18.5,20.6,18.5,20.7,18.5
				C20.7,18.5,20.7,18.5,20.7,18.5C20.7,18.5,20.7,18.5,20.7,18.5C20.7,18.4,20.6,18.4,20.7,18.5C20.6,18.5,20.6,18.5,20.7,18.5
				C20.7,18.5,20.7,18.5,20.7,18.5C20.7,18.5,20.7,18.5,20.7,18.5C20.7,18.5,20.7,18.5,20.7,18.5c0,0.1,0.1,0.1,0.1,0.2c0,0,0,0,0,0
				c-0.1-0.1-0.2-0.2-0.3-0.3c0,0,0,0,0,0C20.6,18.4,20.6,18.4,20.7,18.5C20.6,18.5,20.6,18.5,20.7,18.5c-0.1-0.1-0.1-0.1-0.2-0.2
				c0,0,0,0,0,0c0.2,0.2,0.4,0.4,0.6,0.5c0,0,0,0,0,0C21,18.7,20.8,18.6,20.7,18.5C20.7,18.5,20.7,18.5,20.7,18.5L20.7,18.5z"/>
		</g>
	</g>
	<g>
		<g>
			<path class="st5" d="M20.5,18.3C20.5,18.4,20.6,18.4,20.5,18.3c0.1,0.1,0.1,0.1,0.1,0.1C20.6,18.4,20.6,18.4,20.5,18.3
				C20.5,18.3,20.5,18.3,20.5,18.3L20.5,18.3z"/>
		</g>
	</g>
	<g>
		<g>
			<path class="st5" d="M21.1,18.8C21.1,18.9,21.1,18.9,21.1,18.8c0.1,0,0.1,0,0.1,0c-0.1-0.1-0.2-0.1-0.3-0.2c0,0,0,0,0,0
				C20.9,18.7,21,18.8,21.1,18.8C21.1,18.9,21.2,18.8,21.1,18.8c0-0.1-0.1-0.2-0.2-0.2c-0.1-0.1-0.1-0.1-0.2-0.2c0,0-0.1,0,0,0
				c0.1,0.1,0.1,0.1,0.2,0.2C21,18.7,21,18.8,21.1,18.8C21.1,18.8,21.1,18.8,21.1,18.8c0-0.1-0.1-0.2-0.2-0.2c0,0-0.1,0,0,0
				C21,18.7,21.1,18.8,21.1,18.8c0.1,0.1,0.1,0,0.1,0C21.2,18.8,21.1,18.8,21.1,18.8C21.1,18.8,21.1,18.8,21.1,18.8L21.1,18.8z"/>
		</g>
	</g>
	<g>
		<g>
			<path class="st5" d="M20.7,18.5c0.1,0.1,0.2,0.1,0.3,0.2c0,0,0,0,0,0C20.9,18.6,20.8,18.6,20.7,18.5
				C20.7,18.5,20.7,18.6,20.7,18.5c0.2,0.2,0.4,0.3,0.6,0.4c0,0,0,0,0,0c-0.1-0.1-0.3-0.2-0.4-0.2c0,0-0.1,0,0,0
				c0.1,0.1,0.3,0.2,0.4,0.2c0,0,0.1,0,0,0C21.1,18.8,20.9,18.7,20.7,18.5C20.7,18.5,20.7,18.5,20.7,18.5c0.1,0.1,0.2,0.2,0.3,0.2
				c0,0,0,0,0,0C20.9,18.6,20.8,18.5,20.7,18.5C20.6,18.4,20.6,18.5,20.7,18.5L20.7,18.5z"/>
		</g>
	</g>
	<g>
		<g>
			<path class="st5" d="M22.3,19.6C22.3,19.6,22.3,19.6,22.3,19.6C22.2,19.6,22.2,19.7,22.3,19.6C22.3,19.7,22.3,19.7,22.3,19.6
				C22.3,19.7,22.3,19.6,22.3,19.6L22.3,19.6z"/>
		</g>
	</g>
	<g>
		<g>
			<path class="st5" d="M22.3,19.6c-0.3-0.2-0.5-0.4-0.8-0.5c0,0-0.1,0,0,0C21.8,19.3,22,19.5,22.3,19.6
				C22.3,19.7,22.3,19.6,22.3,19.6L22.3,19.6z"/>
		</g>
	</g>
	<g>
		<g>
			<path class="st5" d="M21.5,19.1c-0.1-0.1-0.3-0.2-0.4-0.2c0,0,0,0,0,0C21.3,19,21.4,19,21.5,19.1C21.5,19.1,21.5,19.1,21.5,19.1
				c-0.1-0.1-0.3-0.2-0.4-0.2c0,0,0,0,0,0C21.3,19,21.4,19.1,21.5,19.1C21.6,19.2,21.6,19.1,21.5,19.1L21.5,19.1z"/>
		</g>
	</g>
	<g>
		<g>
			<path class="st5" d="M21.3,18.9c-0.1,0-0.1-0.1-0.2-0.1c0,0,0,0,0,0c0,0,0.1,0,0.1,0c0,0,0.1,0,0,0c0,0-0.1,0-0.1,0c0,0,0,0,0,0
				c0,0,0,0,0,0C21.2,18.9,21.2,18.9,21.3,18.9C21.3,19,21.3,18.9,21.3,18.9C21.3,18.9,21.3,18.9,21.3,18.9L21.3,18.9z"/>
		</g>
	</g>
	<g>
		<g>
			<path class="st5" d="M22.2,19.7c-0.1-0.1-0.1-0.1-0.2-0.2c0,0,0,0,0,0C22.1,19.6,22.2,19.6,22.2,19.7
				C22.3,19.7,22.3,19.7,22.2,19.7C22.2,19.7,22.2,19.7,22.2,19.7C22.2,19.7,22.2,19.8,22.2,19.7c0,0,0.1,0,0.1,0
				C22.4,19.7,22.4,19.6,22.2,19.7c0,0-0.1-0.1-0.1-0.1c-0.1-0.1-0.1-0.1-0.2-0.2c-0.1-0.1-0.3-0.2-0.4-0.3c0,0-0.1,0,0,0
				c0.2,0.1,0.3,0.2,0.4,0.3c0.1,0.1,0.1,0.1,0.2,0.2c0.1,0,0.1,0.1,0.2,0C22.3,19.7,22.3,19.7,22.2,19.7
				C22.3,19.7,22.2,19.7,22.2,19.7C22.2,19.7,22.2,19.7,22.2,19.7C22.2,19.7,22.3,19.7,22.2,19.7C22.3,19.7,22.3,19.6,22.2,19.7
				c0-0.1-0.1-0.2-0.2-0.2c0,0,0,0,0,0C22.1,19.6,22.1,19.7,22.2,19.7C22.2,19.8,22.3,19.7,22.2,19.7L22.2,19.7z"/>
		</g>
	</g>
	<g>
		<g>
			<path class="st5" d="M22.2,19.7c-0.1-0.1-0.1-0.2-0.2-0.2c0,0,0,0,0,0c0,0,0,0,0,0C22,19.6,22.1,19.6,22.2,19.7
				C22.2,19.7,22.2,19.7,22.2,19.7C22.2,19.7,22.2,19.7,22.2,19.7L22.2,19.7z"/>
		</g>
	</g>
	<g>
		<g>
			<path class="st5" d="M21.3,18.9C21.3,18.9,21.3,18.9,21.3,18.9c0.1,0.1,0.1,0,0.1,0c-0.1-0.1-0.2-0.1-0.2-0.2c0,0,0,0,0,0
				c0,0,0,0,0,0C21.2,18.9,21.3,18.9,21.3,18.9c0.1,0.1,0.1,0.1,0.1,0C21.4,18.9,21.3,18.9,21.3,18.9C21.3,18.9,21.3,18.9,21.3,18.9
				C21.2,18.9,21.2,18.9,21.3,18.9L21.3,18.9z"/>
		</g>
	</g>
	<g>
		<g>
			<path class="st5" d="M21.8,19.9c0,0-0.1-0.1-0.1-0.1c0,0,0,0-0.1,0c0,0,0,0,0,0c0,0,0,0,0,0c0,0,0,0,0,0c0,0,0,0,0,0
				c0,0,0.1,0.1,0.1,0.1C21.7,19.8,21.8,19.8,21.8,19.9C21.8,19.9,21.8,19.9,21.8,19.9c0-0.1-0.1-0.1-0.2-0.2c0,0,0,0,0,0
				C21.6,19.7,21.7,19.8,21.8,19.9C21.7,19.9,21.7,19.8,21.8,19.9c-0.1-0.1-0.1-0.1-0.1-0.1c0,0,0,0,0,0
				C21.6,19.8,21.7,19.8,21.8,19.9C21.7,19.8,21.7,19.8,21.8,19.9c-0.1-0.1-0.1-0.2-0.2-0.2c0,0,0,0,0,0c0,0,0,0,0,0
				c0,0,0.1,0.1,0.1,0.1c0,0,0,0,0,0c0-0.1-0.1-0.1-0.1-0.1c0,0,0,0,0,0c0,0,0.1,0,0.1,0.1c0,0,0,0,0,0c0,0-0.1-0.1-0.1-0.1
				c0,0,0,0,0,0c0,0,0,0,0,0c0,0,0.1,0,0.1,0.1c0,0,0,0,0,0c0,0-0.1-0.1-0.1-0.1c0,0,0,0,0,0C21.6,19.7,21.6,19.8,21.8,19.9
				C21.7,19.8,21.7,19.8,21.8,19.9c-0.1-0.1-0.2-0.2-0.2-0.2c0,0,0,0,0,0c0,0,0.1,0,0.1,0c0,0,0,0,0,0c0,0-0.1,0-0.1-0.1
				c0,0,0,0,0,0c0,0,0.1,0,0.1,0.1c0,0,0,0,0,0c0,0-0.1,0-0.1-0.1c0,0,0,0,0,0c0,0,0.1,0,0.1,0.1c0,0,0,0,0,0c0,0-0.1-0.1-0.1-0.1
				c0,0,0,0,0,0C21.6,19.7,21.7,19.7,21.8,19.9C21.7,19.8,21.7,19.8,21.8,19.9c-0.1-0.1-0.1-0.1-0.1-0.1c0,0,0,0,0,0
				C21.7,19.8,21.7,19.8,21.8,19.9C21.7,19.8,21.7,19.8,21.8,19.9c-0.1-0.1-0.1-0.1-0.2-0.2c0,0,0,0,0,0
				C21.6,19.7,21.7,19.8,21.8,19.9C21.8,19.9,21.8,19.9,21.8,19.9c0-0.1,0-0.1-0.1-0.1c0,0,0,0-0.1-0.1c0,0,0,0-0.1,0
				c0,0-0.1,0-0.1,0c0,0,0,0.1,0.1,0.1C21.6,19.8,21.7,19.8,21.8,19.9C21.8,19.9,21.8,19.9,21.8,19.9L21.8,19.9z"/>
		</g>
	</g>
	<g>
		<path class="st5" d="M21.7,18.6c-0.3-0.1-0.3-0.2-0.7-0.5c-0.2-0.2-0.2-0.2-0.5-0.4c-0.1-0.1-0.2-0.2-0.3-0.2
			c-0.1,0-0.1-0.1-0.2-0.2c0,0-0.1-0.1-0.1-0.1c0.2,0.2,0.4,0.4,0.7,0.5c0.5,0.4,1,0.7,1.4,1C22,18.7,21.8,18.7,21.7,18.6z"/>
		<g>
			<path class="st5" d="M21.7,18.6c-0.3-0.2-0.6-0.4-0.9-0.7c-0.1-0.1-0.3-0.2-0.4-0.3c-0.2-0.1-0.4-0.3-0.5-0.5c0,0,0,0,0,0
				c0.7,0.6,1.4,1.1,2.1,1.6c0,0,0,0,0,0C21.9,18.7,21.8,18.7,21.7,18.6C21.7,18.6,21.7,18.6,21.7,18.6c0.1,0.1,0.2,0.1,0.3,0.1
				c0,0,0,0,0,0c-0.7-0.5-1.4-1-2.1-1.6c0,0,0,0,0,0c0.1,0.2,0.3,0.3,0.5,0.4c0.2,0.1,0.3,0.2,0.5,0.4
				C21.1,18.2,21.4,18.5,21.7,18.6C21.7,18.7,21.8,18.6,21.7,18.6z"/>
		</g>
	</g>
	<g id="Layer_3">
		<g>
			<g>
				<path d="M18.1,11.1c0.1,0.3,0.2,0.6,0.3,0.9c0.1,0.1,0.1,0.3,0.2,0.4c0.1,0.1,0.2,0.3,0.3,0.4c0.1,0.1,0.3,0.1,0.4,0.1
					c0.1-0.1,0.2-0.2,0.2-0.4c0-0.2-0.1-0.3-0.2-0.4c-0.1-0.1-0.1-0.3-0.2-0.4c-0.2-0.3-0.4-0.5-0.7-0.7
					C18.2,10.8,18.1,10.9,18.1,11.1c0.1,0.1,0.1,0.2,0.1,0.3c0,0.2,0.3,0.1,0.2-0.1c0-0.1-0.1-0.2-0.1-0.4
					C18.3,11,18.2,11,18.1,11.1c0.5,0.3,0.8,0.7,1,1.1c0,0.1,0.1,0.2,0.1,0.3c0,0.1-0.1,0-0.2,0c-0.2-0.2-0.3-0.4-0.4-0.7
					c-0.1-0.3-0.2-0.6-0.3-0.8C18.3,10.8,18,10.9,18.1,11.1L18.1,11.1z"/>
			</g>
		</g>
		<g>
			<g>
				<path d="M18.2,11.3c0.1,0.3,0.2,0.5,0.3,0.8c0.1,0.2,0.2,0.5,0.5,0.5c0.1,0,0.1,0,0.2-0.1c0-0.1,0-0.1-0.1-0.2
					c-0.2,0-0.3-0.2-0.3-0.4c-0.1-0.2-0.1-0.5-0.2-0.7C18.4,11.1,18.2,11.2,18.2,11.3L18.2,11.3z"/>
			</g>
		</g>
		<g>
			<g>
				<path d="M18.3,11.4c0.1,0.5,0.3,0.9,0.7,1.2c0,0,0.1,0,0.2,0c0,0,0.1-0.1,0.1-0.1c-0.1-0.4-0.3-0.7-0.6-1c0-0.1-0.1,0-0.2,0
					c-0.1,0.1,0,0.1,0,0.2c0.2,0.3,0.4,0.6,0.5,0.9c0.1,0,0.1-0.1,0.2-0.1c-0.3-0.3-0.5-0.7-0.6-1.1c0-0.1-0.1-0.1-0.2-0.1
					C18.4,11.3,18.3,11.4,18.3,11.4L18.3,11.4z"/>
			</g>
		</g>
	</g>
</g>
</svg>
